<mxfile host="app.diagrams.net" modified="2022-06-29T08:28:37.126Z" agent="5.0 (Windows NT 6.1; Win64; x64) AppleWebKit/537.36 (KHTML, like Gecko) Chrome/103.0.0.0 Safari/537.36" etag="wzAjv5ydJFZSexYXA0CO" version="20.0.3" type="github" pages="2">
  <diagram id="R2lEEEUBdFMjLlhIrx00" name="Page-1">
    <mxGraphModel dx="1088" dy="644" grid="1" gridSize="10" guides="1" tooltips="1" connect="1" arrows="1" fold="1" page="1" pageScale="1" pageWidth="850" pageHeight="1100" math="0" shadow="0" extFonts="Permanent Marker^https://fonts.googleapis.com/css?family=Permanent+Marker">
      <root>
        <mxCell id="0" />
        <mxCell id="1" parent="0" />
        <mxCell id="rRveS7QiudBQxACLEBaP-16" value="" style="endArrow=none;dashed=1;html=1;rounded=0;" edge="1" parent="1">
          <mxGeometry width="50" height="50" relative="1" as="geometry">
            <mxPoint x="80" y="110" as="sourcePoint" />
            <mxPoint x="820" y="110" as="targetPoint" />
          </mxGeometry>
        </mxCell>
        <mxCell id="rRveS7QiudBQxACLEBaP-70" value="" style="group" vertex="1" connectable="0" parent="1">
          <mxGeometry x="150" y="110" width="530" height="530" as="geometry" />
        </mxCell>
        <mxCell id="rRveS7QiudBQxACLEBaP-74" value="" style="group" vertex="1" connectable="0" parent="rRveS7QiudBQxACLEBaP-70">
          <mxGeometry x="20" y="10" width="530" height="530" as="geometry" />
        </mxCell>
        <mxCell id="rRveS7QiudBQxACLEBaP-71" value="" style="rounded=0;whiteSpace=wrap;html=1;strokeColor=default;fillColor=#FFCE9F;gradientColor=none;" vertex="1" parent="rRveS7QiudBQxACLEBaP-74">
          <mxGeometry width="530" height="530" as="geometry" />
        </mxCell>
        <mxCell id="rRveS7QiudBQxACLEBaP-73" value="" style="rounded=0;whiteSpace=wrap;html=1;strokeColor=default;fillColor=#FFFFFF;gradientColor=none;" vertex="1" parent="rRveS7QiudBQxACLEBaP-74">
          <mxGeometry y="80" width="470" height="370" as="geometry" />
        </mxCell>
        <mxCell id="rRveS7QiudBQxACLEBaP-65" value="BT_L2CAP_CHANNEL_DEFINE()" style="rounded=0;whiteSpace=wrap;html=1;" vertex="1" parent="rRveS7QiudBQxACLEBaP-74">
          <mxGeometry x="100" y="10" width="210" height="40" as="geometry" />
        </mxCell>
        <mxCell id="rRveS7QiudBQxACLEBaP-54" value="bt_l2cap_le_lookup_rx_cid()" style="rounded=0;whiteSpace=wrap;html=1;" vertex="1" parent="rRveS7QiudBQxACLEBaP-74">
          <mxGeometry x="109.99756756756763" y="459.99567567567567" width="184.86486486486487" height="57.2972972972973" as="geometry" />
        </mxCell>
        <mxCell id="rRveS7QiudBQxACLEBaP-46" value="" style="group;fillColor=none;" vertex="1" connectable="0" parent="rRveS7QiudBQxACLEBaP-74">
          <mxGeometry x="60" y="115" width="310" height="300" as="geometry" />
        </mxCell>
        <mxCell id="rRveS7QiudBQxACLEBaP-43" value="" style="rounded=0;whiteSpace=wrap;html=1;strokeColor=default;fillColor=#FFCE9F;gradientColor=none;" vertex="1" parent="rRveS7QiudBQxACLEBaP-46">
          <mxGeometry width="300.3125" height="203.99999999999997" as="geometry" />
        </mxCell>
        <mxCell id="rRveS7QiudBQxACLEBaP-57" value="" style="endArrow=classic;html=1;rounded=0;entryX=0.5;entryY=1;entryDx=0;entryDy=0;" edge="1" parent="rRveS7QiudBQxACLEBaP-46" target="rRveS7QiudBQxACLEBaP-54">
          <mxGeometry width="50" height="50" relative="1" as="geometry">
            <mxPoint x="142" y="460" as="sourcePoint" />
            <mxPoint x="174.37500000000003" y="288" as="targetPoint" />
          </mxGeometry>
        </mxCell>
        <mxCell id="rRveS7QiudBQxACLEBaP-76" value="&lt;span style=&quot;font-weight: 700;&quot;&gt;Segment / Reassembly&lt;/span&gt;" style="text;html=1;strokeColor=none;fillColor=none;align=center;verticalAlign=middle;whiteSpace=wrap;rounded=0;" vertex="1" parent="rRveS7QiudBQxACLEBaP-46">
          <mxGeometry x="150" y="10" width="140" height="30" as="geometry" />
        </mxCell>
        <mxCell id="rRveS7QiudBQxACLEBaP-44" value="&lt;span style=&quot;font-weight: 700;&quot;&gt;Channel Manager&lt;/span&gt;" style="text;html=1;strokeColor=none;fillColor=none;align=center;verticalAlign=middle;whiteSpace=wrap;rounded=0;" vertex="1" parent="rRveS7QiudBQxACLEBaP-74">
          <mxGeometry x="404.0025" y="10.000000000000007" width="121.09375" height="39.132" as="geometry" />
        </mxCell>
        <mxCell id="rRveS7QiudBQxACLEBaP-60" value="接收到l2cap数据" style="rounded=0;whiteSpace=wrap;html=1;" vertex="1" parent="1">
          <mxGeometry x="270" y="690" width="184.86" height="40" as="geometry" />
        </mxCell>
      </root>
    </mxGraphModel>
  </diagram>
  <diagram id="AEi3HNSez5Ofibtd5upA" name="Page-2">
    <mxGraphModel dx="1088" dy="644" grid="1" gridSize="10" guides="1" tooltips="1" connect="1" arrows="1" fold="1" page="1" pageScale="1" pageWidth="827" pageHeight="1169" math="0" shadow="0">
      <root>
        <mxCell id="0" />
        <mxCell id="1" parent="0" />
        <mxCell id="5Tr9m24EcFweUr9sThQb-28" value="&lt;font face=&quot;Helvetica&quot;&gt;&lt;b&gt;L2CAP layer&lt;/b&gt;&lt;/font&gt;" style="rounded=1;whiteSpace=wrap;html=1;fontFamily=consola;fontSource=https%3A%2F%2Ffonts.googleapis.com%2Fcss%3Ffamily%3Dconsola;align=right;verticalAlign=top;arcSize=3;" vertex="1" parent="1">
          <mxGeometry x="44" y="220" width="736" height="460" as="geometry" />
        </mxCell>
        <mxCell id="5Tr9m24EcFweUr9sThQb-27" value="&lt;font face=&quot;Helvetica&quot;&gt;&lt;b&gt;Upper layer&lt;/b&gt;&lt;/font&gt;" style="rounded=1;whiteSpace=wrap;html=1;fontFamily=consola;fontSource=https%3A%2F%2Ffonts.googleapis.com%2Fcss%3Ffamily%3Dconsola;align=right;verticalAlign=top;" vertex="1" parent="1">
          <mxGeometry x="44" y="70" width="740" height="120" as="geometry" />
        </mxCell>
        <mxCell id="5Tr9m24EcFweUr9sThQb-26" value="&lt;font face=&quot;Helvetica&quot;&gt;&lt;b&gt;HCI layer&lt;/b&gt;&lt;/font&gt;" style="rounded=1;whiteSpace=wrap;html=1;fontFamily=consola;fontSource=https%3A%2F%2Ffonts.googleapis.com%2Fcss%3Ffamily%3Dconsola;align=right;verticalAlign=top;" vertex="1" parent="1">
          <mxGeometry x="50" y="710" width="740" height="120" as="geometry" />
        </mxCell>
        <mxCell id="z2WRaZwJXVNTWJqfiO8C-1" value="" style="shape=partialRectangle;whiteSpace=wrap;html=1;left=0;right=0;fillColor=none;strokeColor=default;dashed=1;" vertex="1" parent="1">
          <mxGeometry x="20" y="200" width="800" height="500" as="geometry" />
        </mxCell>
        <mxCell id="z2WRaZwJXVNTWJqfiO8C-3" value="&lt;span style=&quot;font-weight: 700;&quot;&gt;Segment / Reassembly&lt;/span&gt;" style="whiteSpace=wrap;html=1;aspect=fixed;strokeColor=none;fillColor=#FFCE9F;gradientColor=none;horizontal=1;verticalAlign=top;align=right;" vertex="1" parent="1">
          <mxGeometry x="50" y="270" width="350" height="350" as="geometry" />
        </mxCell>
        <mxCell id="5Tr9m24EcFweUr9sThQb-1" value="&lt;b&gt;Channel Manager&lt;/b&gt;" style="whiteSpace=wrap;html=1;aspect=fixed;strokeColor=none;fillColor=#FFCE9F;gradientColor=none;horizontal=1;verticalAlign=top;align=right;" vertex="1" parent="1">
          <mxGeometry x="480" y="290" width="260" height="260" as="geometry" />
        </mxCell>
        <mxCell id="5Tr9m24EcFweUr9sThQb-2" value="ATT" style="rounded=0;whiteSpace=wrap;html=1;strokeColor=default;fillColor=#FFCE9F;gradientColor=none;" vertex="1" parent="1">
          <mxGeometry x="210" y="90" width="100" height="30" as="geometry" />
        </mxCell>
        <mxCell id="5Tr9m24EcFweUr9sThQb-3" value="SMP" style="rounded=0;whiteSpace=wrap;html=1;strokeColor=default;fillColor=#FFCE9F;gradientColor=none;" vertex="1" parent="1">
          <mxGeometry x="480" y="90" width="100" height="30" as="geometry" />
        </mxCell>
        <mxCell id="5Tr9m24EcFweUr9sThQb-8" value="SDU" style="rounded=0;whiteSpace=wrap;html=1;strokeColor=default;fillColor=#CCCCCC;gradientColor=none;" vertex="1" parent="1">
          <mxGeometry x="345" y="160" width="100" height="30" as="geometry" />
        </mxCell>
        <mxCell id="5Tr9m24EcFweUr9sThQb-19" style="edgeStyle=orthogonalEdgeStyle;rounded=0;orthogonalLoop=1;jettySize=auto;html=1;entryX=0.5;entryY=1;entryDx=0;entryDy=0;fontFamily=consola;fontSource=https%3A%2F%2Ffonts.googleapis.com%2Fcss%3Ffamily%3Dconsola;exitX=1;exitY=0.5;exitDx=0;exitDy=0;strokeColor=#7EA6E0;" edge="1" parent="1" source="5Tr9m24EcFweUr9sThQb-10" target="5Tr9m24EcFweUr9sThQb-13">
          <mxGeometry relative="1" as="geometry" />
        </mxCell>
        <mxCell id="5Tr9m24EcFweUr9sThQb-10" value="HCI" style="rounded=0;whiteSpace=wrap;html=1;strokeColor=default;fillColor=#FFCE9F;gradientColor=none;" vertex="1" parent="1">
          <mxGeometry x="360" y="790" width="100" height="30" as="geometry" />
        </mxCell>
        <mxCell id="5Tr9m24EcFweUr9sThQb-17" style="edgeStyle=orthogonalEdgeStyle;rounded=0;orthogonalLoop=1;jettySize=auto;html=1;entryX=0;entryY=0.5;entryDx=0;entryDy=0;fontFamily=consola;fontSource=https%3A%2F%2Ffonts.googleapis.com%2Fcss%3Ffamily%3Dconsola;exitX=0.5;exitY=1;exitDx=0;exitDy=0;strokeColor=#7EA6E0;" edge="1" parent="1" source="5Tr9m24EcFweUr9sThQb-12" target="5Tr9m24EcFweUr9sThQb-10">
          <mxGeometry relative="1" as="geometry" />
        </mxCell>
        <mxCell id="5Tr9m24EcFweUr9sThQb-12" value="ACL Data" style="rounded=0;whiteSpace=wrap;html=1;strokeColor=default;fillColor=#CCCCCC;gradientColor=none;" vertex="1" parent="1">
          <mxGeometry x="210" y="740" width="100" height="30" as="geometry" />
        </mxCell>
        <mxCell id="5Tr9m24EcFweUr9sThQb-25" style="edgeStyle=orthogonalEdgeStyle;rounded=0;orthogonalLoop=1;jettySize=auto;html=1;fontFamily=consola;fontSource=https%3A%2F%2Ffonts.googleapis.com%2Fcss%3Ffamily%3Dconsola;strokeColor=#7EA6E0;" edge="1" parent="1" source="5Tr9m24EcFweUr9sThQb-13" target="5Tr9m24EcFweUr9sThQb-23">
          <mxGeometry relative="1" as="geometry" />
        </mxCell>
        <mxCell id="5Tr9m24EcFweUr9sThQb-13" value="ACL Data" style="rounded=0;whiteSpace=wrap;html=1;strokeColor=default;fillColor=#CCCCCC;gradientColor=none;" vertex="1" parent="1">
          <mxGeometry x="515" y="740" width="100" height="30" as="geometry" />
        </mxCell>
        <mxCell id="5Tr9m24EcFweUr9sThQb-23" value="bt_l2cap_recv()" style="rounded=0;whiteSpace=wrap;html=1;" vertex="1" parent="1">
          <mxGeometry x="480" y="650" width="170" height="30" as="geometry" />
        </mxCell>
        <mxCell id="5Tr9m24EcFweUr9sThQb-24" value="bt_l2cap_recv()" style="rounded=0;whiteSpace=wrap;html=1;" vertex="1" parent="1">
          <mxGeometry x="480" y="584.5" width="170" height="30" as="geometry" />
        </mxCell>
      </root>
    </mxGraphModel>
  </diagram>
</mxfile>
